<?xml version="1.0" standalone="no"?>
<!DOCTYPE svg PUBLIC "-//W3C//DTD SVG 20010904//EN"
 "http://www.w3.org/TR/2001/REC-SVG-20010904/DTD/svg10.dtd">
<svg version="1.0" xmlns="http://www.w3.org/2000/svg"
 width="225.000000pt" height="225.000000pt" viewBox="0 0 225.000000 225.000000"
 preserveAspectRatio="xMidYMid meet">
<metadata>
Created by potrace 1.14, written by Peter Selinger 2001-2017
</metadata>
<g transform="translate(0.000000,225.000000) scale(0.100000,-0.100000)"
fill="#000000" stroke="none">
<path d="M1323 2202 c-18 -26 -62 -85 -98 -132 -36 -47 -74 -109 -85 -138 -35
-93 -22 -227 35 -357 16 -37 13 -35 -73 47 -152 144 -279 217 -416 239 -99 16
-194 -4 -403 -85 -77 -30 -168 -60 -204 -67 -35 -7 -66 -14 -68 -16 -2 -1 18
-26 45 -55 28 -29 102 -123 166 -209 163 -219 250 -289 404 -325 115 -27 340
-8 489 41 11 4 4 -3 -15 -15 -227 -144 -310 -212 -380 -312 -97 -138 -114
-260 -71 -513 12 -72 25 -169 29 -217 l7 -87 65 37 c36 21 128 66 205 101 182
81 257 126 328 198 88 88 156 248 157 368 0 51 12 37 39 -45 41 -126 118 -230
223 -301 32 -22 119 -69 192 -105 74 -35 157 -80 186 -99 37 -25 50 -30 45
-18 -4 10 -11 117 -15 238 -11 290 -33 371 -137 500 -43 53 -156 152 -221 195
-22 14 -17 15 63 11 170 -7 229 34 330 228 32 63 69 127 82 141 l23 28 -32 6
c-18 3 -84 29 -147 58 -147 65 -191 78 -260 78 -65 0 -137 -30 -193 -79 l-36
-31 25 60 c28 71 41 165 32 237 -9 71 -54 164 -137 280 -38 54 -77 113 -86
131 -24 47 -53 43 -93 -16z m96 -855 c5 -5 16 18 25 50 13 50 15 52 11 16 -3
-23 -7 -50 -10 -60 -3 -10 8 9 24 42 37 74 40 66 6 -17 -14 -34 -23 -64 -20
-67 3 -2 24 13 48 35 23 22 51 47 62 55 11 7 -7 -12 -39 -43 -63 -60 -71 -88
-14 -45 35 26 78 50 78 44 0 -2 -25 -21 -56 -41 -31 -21 -54 -39 -51 -42 2 -2
30 7 61 22 32 14 60 24 62 21 3 -3 -14 -12 -38 -22 -54 -20 -82 -41 -74 -54 4
-6 48 2 117 20 61 17 113 28 115 26 3 -2 -40 -16 -93 -31 -54 -15 -106 -30
-115 -32 -40 -12 -13 -24 55 -26 70 -2 70 -2 14 -5 -60 -4 -71 -22 -14 -24 18
-1 43 -5 57 -10 18 -6 12 -7 -20 -3 -25 4 -43 4 -40 2 3 -3 30 -27 60 -53 30
-27 64 -60 75 -74 11 -14 -13 3 -52 39 -39 36 -87 74 -105 84 -27 16 -21 6 32
-50 117 -125 137 -162 27 -49 l-108 110 68 -92 c64 -87 118 -173 110 -173 -2
0 -21 26 -42 58 -21 31 -60 85 -87 120 -47 59 -68 75 -68 52 0 -9 158 -278
211 -357 11 -18 19 -33 16 -33 -7 0 -153 226 -203 313 -50 87 -73 90 -40 5 13
-35 32 -81 41 -103 9 -22 13 -36 9 -32 -5 5 -26 47 -47 95 -29 68 -36 78 -31
47 4 -22 13 -60 20 -85 7 -24 11 -46 9 -48 -4 -4 -23 58 -43 138 -8 33 -9 30
-14 -35 -6 -68 -37 -209 -44 -202 -2 2 3 35 10 73 18 91 29 214 19 214 -4 0
-16 -35 -27 -78 -19 -81 -82 -248 -97 -257 -4 -3 5 27 22 67 28 69 60 181 74
258 3 21 -10 -1 -33 -55 -38 -91 -97 -203 -126 -240 -9 -11 6 23 33 75 68 131
114 251 102 263 -12 12 -124 -156 -230 -345 -93 -163 -105 -178 -35 -43 58
112 150 270 210 359 18 27 30 54 27 59 -6 10 -156 -138 -205 -203 -15 -19 -27
-32 -28 -29 0 11 81 114 136 172 30 31 52 57 48 57 -7 0 -114 -82 -169 -129
-40 -35 -40 -35 5 13 25 26 73 68 107 94 35 25 62 47 60 48 -1 1 -22 -2 -47
-6 -25 -5 -97 -8 -160 -8 -63 1 -86 3 -50 5 90 3 259 24 264 32 2 3 -39 7 -93
9 -93 2 -277 29 -267 39 2 3 29 0 58 -7 29 -6 109 -13 178 -15 99 -4 116 -2
80 5 -158 36 -284 69 -278 75 2 2 47 -7 102 -20 135 -33 220 -42 214 -24 -5
17 -233 104 -420 161 -76 23 -136 43 -134 46 6 6 328 -92 446 -136 72 -27 107
-36 112 -28 10 16 -34 48 -149 108 -56 29 -100 54 -99 56 6 5 134 -57 200 -97
82 -49 70 -31 -34 52 -92 74 -101 83 -72 68 13 -7 58 -41 102 -76 l78 -63 -19
55 c-27 80 -23 91 6 14 25 -67 51 -107 41 -61 -21 91 -25 118 -25 140 0 14 8
-12 18 -57 9 -45 20 -86 25 -90 4 -4 5 35 3 87 l-6 95 11 -90 c11 -97 27 -136
39 -94 4 13 8 96 10 184 l4 160 2 -185 c2 -101 7 -188 12 -193z m48 126 c-3
-10 -5 -2 -5 17 0 19 2 27 5 18 2 -10 2 -26 0 -35z m210 -269 c-3 -3 -12 -4
-19 -1 -8 3 -5 6 6 6 11 1 17 -2 13 -5z"/>
<path d="M705 918 c-202 -252 -380 -571 -491 -880 -13 -37 -13 -38 12 -38 14
0 27 7 31 18 107 305 286 652 464 902 32 44 56 80 54 80 -2 0 -33 -37 -70 -82z"/>
</g>
</svg>
